<svg xmlns="http://www.w3.org/2000/svg" width="192" height="72" viewBox="0 0 192 72"><path fill="#dd3a0a" d="M0 0h192v72H0z"/><path fill="#fff" d="M36.909 55.091l-1.939-7.879h-7.636l-1.939 7.879H16l10.667-38.182h8.909l10.727 38.182h-9.394zm-5.757-26.606l-2.848 11.636H34l-2.848-11.636zM59.092 56c-3.515 0-7.758-2.061-10.424-4.303l4-6.303c1.576 1.152 4.485 2.97 6.485 2.97 2.303 0 3.939-1.455 3.939-3.818 0-4.667-15.152-6.667-15.152-17.697C47.941 20 53.335 16 59.88 16c4.243 0 8.97 2.424 11.516 5.758l-5.031 4.485c-1.455-1.637-4-2.849-6.182-2.849-1.757 0-3.394 1.394-3.394 3.212 0 5.818 15.212 6 15.212 18C72.002 51.818 65.819 56 59.092 56zm26.304 0c-3.515 0-7.758-2.061-10.424-4.303l4-6.303c1.576 1.152 4.485 2.97 6.485 2.97 2.303 0 3.939-1.455 3.939-3.818 0-4.667-15.152-6.667-15.152-17.697C74.244 20 79.638 16 86.184 16c4.242 0 8.97 2.424 11.515 5.758l-5.031 4.485c-1.455-1.637-4-2.849-6.182-2.849-1.758 0-3.394 1.394-3.394 3.212 0 5.818 15.212 6 15.212 18C98.305 51.818 92.123 56 85.396 56zm16.91-.909V16.909h22.121v7.758h-13.091v6.667h10.061v7.879h-10.061v8h13.757v7.879h-22.787zm41.092-30.243v30.243h-8.97l.061-30.243h-7.151v-7.939h23.273v7.939h-7.213zM163.762 56c-3.515 0-7.758-2.061-10.424-4.303l4-6.303c1.576 1.152 4.485 2.97 6.485 2.97 2.303 0 3.939-1.455 3.939-3.818 0-4.667-15.152-6.667-15.152-17.697C152.611 20 158.005 16 164.551 16c4.242 0 8.969 2.424 11.515 5.758l-5.031 4.485c-1.455-1.637-4-2.849-6.182-2.849-1.758 0-3.394 1.394-3.394 3.212 0 5.818 15.212 6 15.212 18 0 7.212-6.181 11.394-12.909 11.394z"/></svg>